<?xml version="1.0" encoding="iso-8859-1"?>
<!-- Generator: Adobe Illustrator 21.0.0, SVG Export Plug-In . SVG Version: 6.00 Build 0)  -->
<svg xmlns="http://www.w3.org/2000/svg" xmlns:xlink="http://www.w3.org/1999/xlink" version="1.1" id="Capa_1" x="0px" y="0px" viewBox="0 0 512.006 512.006" style="enable-background:new 0 0 512.006 512.006;" xml:space="preserve" width="512" height="512">
<g>
	<path style="fill:#EF5350;" d="M451.28,47.471H60.726C31.33,47.471,7.5,71.301,7.5,100.697v225.538   c0,29.396,23.83,53.226,53.226,53.226h129.398l65.879,85.074l65.879-85.074H451.28c29.396,0,53.226-23.83,53.226-53.226V100.697   C504.507,71.301,480.677,47.471,451.28,47.471z"/>
	<path style="fill:#D32F2F;" d="M452.88,47.511c7.27,9.101,11.627,20.632,11.627,33.186v157.069   c0,67.21-54.485,121.695-121.695,121.695h-19.309c-26.254,0-51.029,12.15-67.104,32.908l-28.14,36.339l27.744,35.827l65.879-85.074   h129.398c29.396,0,53.226-23.83,53.226-53.226V100.697C504.507,71.838,481.534,48.359,452.88,47.511z"/>
	<path style="fill:#FFFFFF;" d="M452.348,234.179L452.348,234.179c-6.99,0-12.656-5.666-12.656-12.656v-45.349   c0-6.99,5.666-12.656,12.656-12.656l0,0c6.99,0,12.656,5.666,12.656,12.656v45.349   C465.003,228.513,459.337,234.179,452.348,234.179z"/>
	<path style="fill:#FFFFFF;" d="M51.205,261.773L51.205,261.773c-4.942-4.942-4.942-12.956,0-17.898l63.499-63.499   c4.942-4.942,12.956-4.942,17.898,0l0,0c4.942,4.942,4.942,12.956,0,17.898l-63.499,63.499   C64.161,266.715,56.148,266.715,51.205,261.773z"/>
	<path style="fill:#FFFFFF;" d="M272.516,207.209c6.99,0,12.656-5.666,12.656-12.656l0,0c0-6.99-5.666-12.656-12.656-12.656h-3.492   l0.647-3.813c1.293-7.616-4.576-14.566-12.301-14.566h0c-6.085,0-11.283,4.39-12.301,10.389l-1.356,7.99H215.98l0.647-3.813   c1.293-7.616-4.576-14.566-12.301-14.566h0c-6.085,0-11.283,4.39-12.301,10.389l-1.356,7.99h-15.491   c-6.99,0-12.656,5.666-12.656,12.656l0,0c0,6.99,5.666,12.656,12.656,12.656h11.194l-4.708,27.731h-6.487   c-6.99,0-12.656,5.666-12.656,12.656v0c0,6.99,5.666,12.656,12.656,12.656h2.19l-0.647,3.813   c-1.293,7.616,4.576,14.566,12.301,14.566h0c6.085,0,11.283-4.39,12.301-10.389l1.356-7.99h27.731l-0.647,3.813   c-1.293,7.616,4.576,14.566,12.301,14.566h0c6.085,0,11.283-4.39,12.301-10.389l1.356-7.99h16.794   c6.99,0,12.656-5.666,12.656-12.656v0c0-6.99-5.666-12.656-12.656-12.656h-12.497l4.708-27.731H272.516z M234.707,234.94h-27.731   l4.708-27.731h27.731L234.707,234.94z"/>
	<circle style="fill:#FFFFFF;" cx="452.348" cy="265.975" r="12.656"/>
	<circle style="fill:#FFFFFF;" cx="124.149" cy="253.319" r="12.656"/>
	<circle style="fill:#FFFFFF;" cx="59.659" cy="188.83" r="12.656"/>
	<path style="fill:#FFFFFF;" d="M407.645,232.564l-19.901-11.49l19.901-11.49c6.053-3.495,8.127-11.235,4.632-17.288   c-3.495-6.053-11.235-8.127-17.288-4.632l-19.901,11.49v-22.98c0-6.99-5.666-12.656-12.656-12.656l0,0   c-6.99,0-12.656,5.666-12.656,12.656v22.98l-19.901-11.49c-6.053-3.495-13.793-1.421-17.288,4.632   c-3.495,6.053-1.421,13.793,4.632,17.288l19.901,11.49l-19.901,11.49c-6.053,3.495-8.127,11.235-4.632,17.288   c3.495,6.053,11.235,8.127,17.288,4.632l19.901-11.49v22.98c0,6.99,5.666,12.656,12.656,12.656l0,0   c6.99,0,12.656-5.666,12.656-12.656v-22.98l19.901,11.49c6.053,3.495,13.793,1.421,17.288-4.632   C415.772,243.8,413.698,236.059,407.645,232.564z"/>
	<g>
		<path d="M196.054,374.869c-1.42-1.835-3.61-2.908-5.93-2.908H60.727C35.513,371.961,15,351.448,15,326.236V100.698    c0-25.214,20.513-45.727,45.727-45.727h336.134c4.143,0,7.5-3.357,7.5-7.5s-3.357-7.5-7.5-7.5H60.727    C27.242,39.971,0,67.213,0,100.698v225.538c0,33.484,27.242,60.726,60.727,60.726h125.72l18.132,23.415    c1.478,1.909,3.694,2.908,5.935,2.908c1.604,0,3.22-0.512,4.586-1.57c3.275-2.536,3.874-7.247,1.338-10.521L196.054,374.869z"/>
		<path d="M451.281,39.971h-19.42c-4.143,0-7.5,3.357-7.5,7.5s3.357,7.5,7.5,7.5h19.42c25.213,0,45.726,20.513,45.726,45.727    v225.538c0,25.213-20.513,45.726-45.726,45.726H321.882c-2.32,0-4.51,1.073-5.93,2.908l-59.949,77.416l-18.136-23.419    c-2.537-3.276-7.248-3.876-10.521-1.338c-3.275,2.536-3.874,7.247-1.338,10.521l24.065,31.077c1.42,1.835,3.61,2.908,5.93,2.908    c2.32,0,4.51-1.073,5.93-2.908l63.627-82.166h125.721c33.484,0,60.726-27.241,60.726-60.726V100.698    C512.006,67.213,484.765,39.971,451.281,39.971z"/>
		<path d="M452.347,241.679c11.114,0,20.156-9.042,20.156-20.155v-45.35c0-11.114-9.042-20.156-20.156-20.156    c-11.113,0-20.155,9.042-20.155,20.156v45.35C432.192,232.637,441.234,241.679,452.347,241.679z M447.192,176.174    c0-2.843,2.313-5.156,5.155-5.156s5.156,2.313,5.156,5.156v45.35c0,2.843-2.313,5.155-5.156,5.155s-5.155-2.313-5.155-5.155    V176.174z"/>
		<path d="M98.96,221.31c-2.929,2.93-2.929,7.678,0,10.607c2.929,2.928,7.678,2.928,10.606,0l28.339-28.339    c7.859-7.859,7.859-20.646,0-28.506c-7.858-7.857-20.646-7.857-28.505,0l-63.499,63.499c-7.859,7.859-7.859,20.646,0,28.505    c7.857,7.857,20.645,7.859,28.504,0l10.412-10.411c2.929-2.929,2.929-7.678,0-10.606c-2.929-2.93-7.678-2.929-10.606-0.001    L63.8,256.469c-2.011,2.013-5.281,2.012-7.292,0c-2.01-2.01-2.01-5.28,0-7.29l63.499-63.499c2.011-2.012,5.281-2.012,7.292,0    c2.01,2.01,2.01,5.281,0,7.291L98.96,221.31z"/>
		<path d="M242.064,286.131c9.776,0,18.059-6.995,19.695-16.634l0.297-1.745h10.46c11.113,0,20.155-9.042,20.155-20.156    c0-11.113-9.042-20.155-20.155-20.155h-3.617l2.161-12.731h1.456c11.113,0,20.155-9.042,20.155-20.156    c0-9.458-6.548-17.415-15.348-19.577c-0.531-10.544-9.252-18.958-19.954-18.958c-9.777,0-18.06,6.996-19.695,16.634l-0.296,1.745    h-13.135c-0.821-10.308-9.442-18.379-19.916-18.379c-9.777,0-18.06,6.996-19.695,16.634l-0.296,1.745h-9.158    c-11.114,0-20.156,9.042-20.156,20.156s9.042,20.156,20.156,20.156h2.314l-2.161,12.731h-0.153    c-11.114,0-20.156,9.042-20.156,20.155c0,8.979,5.902,16.606,14.03,19.205c0.338,10.685,9.11,19.33,19.969,19.33    c9.776,0,18.059-6.995,19.695-16.634l0.296-1.745h13.135C222.968,278.051,231.581,286.131,242.064,286.131z M202.679,252.752    c-3.658,0-6.782,2.639-7.394,6.245l-1.356,7.989c-0.408,2.401-2.472,4.145-4.908,4.145c-3.081,0-5.424-2.768-4.907-5.81    l0.647-3.813c0.776-4.569-2.746-8.756-7.394-8.756h-2.189c-2.843,0-5.156-2.313-5.156-5.156s2.313-5.155,5.156-5.155h6.487    c3.658,0,6.782-2.639,7.394-6.245l4.708-27.731c0.776-4.569-2.747-8.755-7.394-8.755h-11.194c-2.843,0-5.156-2.313-5.156-5.156    s2.313-5.156,5.156-5.156h15.492c3.658,0,6.782-2.639,7.394-6.244l1.357-7.99c0.407-2.401,2.471-4.145,4.907-4.145    c3.082,0,5.423,2.769,4.907,5.811l-0.647,3.813c-0.779,4.589,2.764,8.756,7.394,8.756h27.731c3.658,0,6.782-2.639,7.394-6.244    l1.357-7.99c0.407-2.401,2.471-4.145,4.907-4.145c3.084,0,5.424,2.769,4.907,5.811l-0.647,3.813    c-0.778,4.589,2.765,8.756,7.395,8.756h3.492c2.843,0,5.155,2.313,5.155,5.156s-2.313,5.156-5.155,5.156h-7.79    c-3.658,0-6.782,2.639-7.395,6.245l-4.707,27.731c-0.776,4.568,2.746,8.755,7.394,8.755h12.497c2.843,0,5.155,2.313,5.155,5.155    s-2.313,5.156-5.155,5.156h-16.794c-3.658,0-6.782,2.639-7.394,6.245l-1.356,7.989c-0.408,2.401-2.472,4.145-4.907,4.145    c-3.083,0-5.424-2.768-4.907-5.811l0.647-3.813c0.775-4.57-2.747-8.755-7.395-8.755H202.679z"/>
		<path d="M242.101,236.196l4.708-27.731c0.776-4.569-2.747-8.755-7.394-8.755h-27.731c-3.658,0-6.782,2.639-7.394,6.245    l-4.708,27.731c-0.776,4.568,2.747,8.755,7.394,8.755h27.731C238.365,242.441,241.489,239.802,242.101,236.196z M228.373,227.441    h-12.517l2.162-12.731h12.517L228.373,227.441z"/>
		<path d="M452.347,286.131c11.114,0,20.156-9.042,20.156-20.156c0-11.113-9.042-20.155-20.156-20.155    c-11.113,0-20.155,9.042-20.155,20.155C432.192,277.089,441.234,286.131,452.347,286.131z M452.347,260.82    c2.843,0,5.156,2.313,5.156,5.155s-2.313,5.156-5.156,5.156s-5.155-2.313-5.155-5.156S449.504,260.82,452.347,260.82z"/>
		<path d="M124.148,273.475c11.114,0,20.156-9.042,20.156-20.155c0-11.114-9.042-20.156-20.156-20.156s-20.156,9.042-20.156,20.156    C103.993,264.433,113.035,273.475,124.148,273.475z M124.148,248.163c2.843,0,5.156,2.313,5.156,5.156s-2.313,5.155-5.156,5.155    s-5.156-2.313-5.156-5.155S121.306,248.163,124.148,248.163z"/>
		<path d="M79.815,188.83c0-11.114-9.042-20.156-20.156-20.156c-11.114,0-20.156,9.042-20.156,20.156    c0,11.113,9.042,20.155,20.156,20.155C70.773,208.986,79.815,199.944,79.815,188.83z M54.503,188.83    c0-2.843,2.313-5.156,5.156-5.156c2.843,0,5.156,2.313,5.156,5.156s-2.313,5.155-5.156,5.155    C56.816,193.986,54.503,191.673,54.503,188.83z"/>
		<path d="M391.239,181.169l-8.651,4.994v-9.989c0-11.114-9.042-20.156-20.155-20.156c-11.114,0-20.156,9.042-20.156,20.156v9.989    l-8.651-4.994c-9.645-5.568-21.962-2.273-27.533,7.377c-5.57,9.646-2.272,21.962,7.378,27.533l8.651,4.995l-8.65,4.994    c-9.648,5.571-12.95,17.885-7.379,27.534c5.557,9.625,17.908,12.934,27.533,7.378l8.651-4.995v9.989    c0,11.114,9.042,20.156,20.156,20.156c11.113,0,20.155-9.042,20.155-20.156v-9.989l8.651,4.995    c9.624,5.558,21.976,2.246,27.533-7.378c5.569-9.645,2.273-21.962-7.377-27.533l-8.651-4.995l8.651-4.995    c9.645-5.568,12.948-17.884,7.377-27.533C413.214,178.92,400.863,175.612,391.239,181.169z M405.782,196.046    c1.425,2.47,0.582,5.618-1.887,7.043l-19.901,11.49c-4.989,2.881-4.998,10.104,0,12.99l19.901,11.49    c2.469,1.426,3.311,4.573,1.887,7.043c-1.422,2.462-4.582,3.307-7.043,1.888l-19.901-11.49c-4.983-2.877-11.25,0.716-11.25,6.495    v22.979c0,2.843-2.313,5.156-5.155,5.156s-5.156-2.313-5.156-5.156v-22.979c0-5.77-6.268-9.372-11.25-6.495l-19.901,11.49    c-2.463,1.419-5.622,0.574-7.043-1.888c-1.424-2.467-0.581-5.619,1.888-7.043l19.9-11.49c4.989-2.881,4.998-10.104,0-12.99    l-19.901-11.491c-2.467-1.422-3.311-4.575-1.887-7.042c1.429-2.474,4.585-3.308,7.043-1.887l19.901,11.489    c4.983,2.877,11.25-0.716,11.25-6.495v-22.979c0-2.843,2.313-5.156,5.156-5.156s5.155,2.313,5.155,5.156v22.979    c0,5.754,6.245,9.385,11.25,6.495l19.901-11.489C401.198,192.739,404.353,193.571,405.782,196.046z"/>
	</g>
</g>















</svg>
